<svg width="16" height="16" viewBox="0 0 16 16" fill="none" xmlns="http://www.w3.org/2000/svg">
<path d="M5.20004 1.33301H10.8C12.9334 1.33301 14.6667 3.06634 14.6667 5.19967V10.7997C14.6667 11.8252 14.2593 12.8087 13.5342 13.5338C12.809 14.259 11.8255 14.6663 10.8 14.6663H5.20004C3.06671 14.6663 1.33337 12.933 1.33337 10.7997V5.19967C1.33337 4.17417 1.74075 3.19067 2.46589 2.46553C3.19104 1.74039 4.17454 1.33301 5.20004 1.33301ZM5.06671 2.66634C4.43019 2.66634 3.81974 2.9192 3.36965 3.36928C2.91956 3.81937 2.66671 4.42982 2.66671 5.06634V10.933C2.66671 12.2597 3.74004 13.333 5.06671 13.333H10.9334C11.5699 13.333 12.1803 13.0802 12.6304 12.6301C13.0805 12.18 13.3334 11.5695 13.3334 10.933V5.06634C13.3334 3.73967 12.26 2.66634 10.9334 2.66634H5.06671ZM11.5 3.66634C11.7211 3.66634 11.933 3.75414 12.0893 3.91042C12.2456 4.0667 12.3334 4.27866 12.3334 4.49967C12.3334 4.72069 12.2456 4.93265 12.0893 5.08893C11.933 5.24521 11.7211 5.33301 11.5 5.33301C11.279 5.33301 11.0671 5.24521 10.9108 5.08893C10.7545 4.93265 10.6667 4.72069 10.6667 4.49967C10.6667 4.27866 10.7545 4.0667 10.9108 3.91042C11.0671 3.75414 11.279 3.66634 11.5 3.66634ZM8.00004 4.66634C8.8841 4.66634 9.73194 5.01753 10.3571 5.64265C10.9822 6.26777 11.3334 7.11562 11.3334 7.99967C11.3334 8.88373 10.9822 9.73158 10.3571 10.3567C9.73194 10.9818 8.8841 11.333 8.00004 11.333C7.11599 11.333 6.26814 10.9818 5.64302 10.3567C5.0179 9.73158 4.66671 8.88373 4.66671 7.99967C4.66671 7.11562 5.0179 6.26777 5.64302 5.64265C6.26814 5.01753 7.11599 4.66634 8.00004 4.66634ZM8.00004 5.99967C7.46961 5.99967 6.9609 6.21039 6.58583 6.58546C6.21075 6.96053 6.00004 7.46924 6.00004 7.99967C6.00004 8.53011 6.21075 9.03882 6.58583 9.41389C6.9609 9.78896 7.46961 9.99967 8.00004 9.99967C8.53047 9.99967 9.03918 9.78896 9.41425 9.41389C9.78933 9.03882 10 8.53011 10 7.99967C10 7.46924 9.78933 6.96053 9.41425 6.58546C9.03918 6.21039 8.53047 5.99967 8.00004 5.99967Z" fill="#333333"/>
</svg>
