<svg width="222" height="63" viewBox="0 0 222 63" fill="none" xmlns="http://www.w3.org/2000/svg">
<path d="M116.474 35.9355H116V36.391H116.474C125.707 36.391 126.564 48 126.564 48H127V24H126.556C126.556 24 125.707 35.9355 116.474 35.9355Z" fill="#1D1D1B"/>
<path d="M94.5266 35.9355H95V36.391H94.5266C85.2999 36.391 84.4358 48 84.4358 48H84V24H84.4433C84.4433 24 85.2923 35.9355 94.5191 35.9355" fill="#1D1D1B"/>
<path d="M116 12V12.4591H118.084C132.87 12.4591 134.542 30 134.542 30H135V12H116Z" fill="#1D1D1B"/>
<path d="M111.637 62.5284V0H111.207C108.602 11.5244 93.3246 11.6385 93.3246 11.6385V12.0949H99.3708V62.5284H93V63H118V62.5284H111.629H111.637Z" fill="#1D1D1B"/>
<path d="M91 12H76V30H76.4553C76.4553 30 77.9702 14.1769 91 12.4517V12Z" fill="#1D1D1B"/>
<path d="M7.9084 29L8 29.0866V30.3346L7.9084 30.4284H1.51145V34.1221H6.32824L6.41985 34.2231V35.4856L6.32824 35.5721H1.51145V41.9134L1.41221 42H0.0992366L0 41.9134V29.0866L0.0992366 29H7.9084Z" fill="#1D1D1B"/>
<path d="M15.87 29L16 29.0866V41.9134L15.87 42H14.13L14 41.9134V29.0866L14.13 29H15.87Z" fill="#1D1D1B"/>
<path d="M26.6556 29C29.3293 29 31.0363 30.4629 31.0363 32.5959C31.0363 34.2533 29.926 35.4424 28.3852 35.9468L33 41.9063L32.9018 42H31.1571L31.0589 41.9063L26.5801 36.2206H24.503V41.9063L24.4048 42H23.0982L23 41.9063V29.0865L23.0982 29.0072H26.6556V29ZM24.4955 34.7722H26.5574C28.1057 34.7722 29.2991 34.0227 29.2991 32.5959C29.2991 31.2411 28.3399 30.4268 26.648 30.4268H24.4879V34.7722H24.4955Z" fill="#1D1D1B"/>
<path d="M43.7432 31.8134C43.1718 31.0245 42.6293 30.5556 41.7324 30.5556C40.7776 30.5556 40.0326 31.2998 40.0326 32.3418C40.0326 34.6194 46 34.5449 46 38.8022C46 41.117 44.1627 43 41.906 43C40.0542 43 38.651 41.9431 38 40.2089L39.0416 39.3679H39.2297C39.7866 40.7225 40.6763 41.437 41.906 41.437C43.3092 41.437 44.3508 40.3131 44.3508 38.8022C44.3508 35.8846 38.3689 36.0112 38.3689 32.3418C38.3689 30.496 39.8372 29 41.7251 29C43.2152 29 44.3291 29.8634 44.9801 31.017L43.924 31.806H43.736L43.7432 31.8134Z" fill="#1D1D1B"/>
<path d="M61.9009 29L62 29.0866V30.3346L61.9009 30.4284H57.2661V41.9134L57.1746 42H55.8406L55.7339 41.9134V30.4284H51.0991L51 30.3346V29.0866L51.0991 29H61.9009Z" fill="#1D1D1B"/>
<path d="M155.901 29L156 29.0866V30.3346L155.901 30.4284H149.504V34.1221H154.328L154.427 34.2231V35.4856L154.328 35.5721H149.504V41.9134L149.412 42H148.092L148 41.9134V29.0866L148.092 29H155.901Z" fill="#1D1D1B"/>
<path d="M164.662 29L164.742 29.0937L170 41.9063L169.912 42H168.516L168.42 41.9063L167.002 38.5103H160.984L159.587 41.9063L159.492 42H158.102L158 41.9063L163.243 29.0937L163.338 29H164.669H164.662ZM161.554 37.0826H166.439L163.989 30.9684L161.554 37.0826Z" fill="#1D1D1B"/>
<path d="M184.916 32.2228C183.586 31.1659 181.958 30.5407 180.284 30.5407C177.234 30.5407 174.727 32.9596 174.727 35.9888C174.727 39.0181 177.234 41.4296 180.284 41.4296C181.958 41.4296 183.594 40.8192 184.916 39.7698L185 39.8591V41.5561C183.724 42.4567 182.157 43 180.284 43C176.248 43 173 39.8368 173 35.9963C173 32.1558 176.248 29 180.284 29C182.157 29 183.731 29.5433 185 30.4365V32.126L184.916 32.2302V32.2228Z" fill="#1D1D1B"/>
<path d="M199.273 29L199.377 29.0866V30.3346L199.273 30.4284H192.575V34.1221H197.626L197.73 34.2231V35.4856L197.626 35.5721H192.575V40.5716H199.896L200 40.6654V41.9134L199.896 42H191.104L191 41.9134V29.0866L191.104 29H199.273Z" fill="#1D1D1B"/>
<path d="M210.75 31.8134C210.179 31.0245 209.629 30.5556 208.74 30.5556C207.785 30.5556 207.04 31.2998 207.04 32.3418C207.04 34.6194 213 34.5449 213 38.8022C213 41.117 211.17 43 208.913 43C207.054 43 205.651 41.9431 205 40.2089L206.042 39.3679H206.237C206.787 40.7225 207.684 41.437 208.913 41.437C210.309 41.437 211.365 40.3131 211.365 38.8022C211.365 35.8846 205.369 36.0112 205.369 32.3418C205.369 30.496 206.844 29 208.732 29C210.215 29 211.336 29.8634 211.987 31.017L210.939 31.806H210.743L210.75 31.8134Z" fill="#1D1D1B"/>
<path d="M222 28.5C222 31.0919 219.939 33 217.5 33C215.061 33 213 31.0839 213 28.5C213 25.9161 215.061 24 217.5 24C219.939 24 222 25.9161 222 28.5ZM213.934 28.5C213.934 30.5353 215.544 32.189 217.508 32.189C219.472 32.189 221.082 30.5353 221.082 28.5C221.082 26.4647 219.456 24.811 217.508 24.811C215.56 24.811 213.934 26.4647 213.934 28.5ZM217.371 26.1546C218.474 26.1546 219.311 26.6396 219.311 27.7129C219.311 28.4125 218.949 28.8737 218.361 29.0804L219.432 30.6625L219.368 30.7261H218.53L218.402 30.6625L217.452 29.2553H217.017V30.6625L216.953 30.7261H216.204L216.14 30.6625V26.2182L216.204 26.1546H217.363H217.371ZM217.025 28.3887H217.5C217.983 28.3887 218.386 28.1661 218.386 27.7129C218.386 27.2597 217.983 27.0212 217.5 27.0212H217.025V28.3887Z" fill="#1D1D1B"/>
</svg>
