<svg width="21" height="21" viewBox="0 0 21 21" fill="none" xmlns="http://www.w3.org/2000/svg">
<path fill-rule="evenodd" clip-rule="evenodd" d="M16.4797 13.4345C17.7667 14.1497 19.0549 14.8652 20.3419 15.5807C20.8958 15.8883 21.1388 16.5412 20.921 17.1363C19.8135 20.1619 16.57 21.7587 13.5182 20.6449C7.26859 18.3641 2.63642 13.7316 0.355217 7.48233C-0.758573 4.43047 0.83861 1.18698 3.86384 0.0795656C4.45936 -0.138692 5.11189 0.104317 5.42015 0.658586C6.13455 1.94563 6.85007 3.2338 7.5656 4.52085C7.90086 5.12462 7.82211 5.84127 7.36309 6.35691C6.76195 7.03344 6.16117 7.70959 5.56003 8.38499C6.84295 11.5092 9.49054 14.1568 12.6148 15.4397C13.2906 14.8386 13.9667 14.2378 14.6429 13.6367C15.1592 13.1777 15.8755 13.0989 16.4789 13.4342L16.4797 13.4345Z" fill="#A6734D"/>
</svg>
